<svg width="603px" height="697px" viewBox="0 0 603 697" version="1.1" xmlns="http://www.w3.org/2000/svg" xmlns:xlink="http://www.w3.org/1999/xlink">
  <path d="M301.578125,696.647527 L-0.15267607,522.443788 L-0.15267607,174.034251 L301.578125,-0.170173777 L603.308926,174.034251 L603.308926,522.442416 L301.578125,696.647527" fill="#333"></path>
  <path d="M301.578125,32.955044 L106.505454,145.580235 L336.505263,328.0748 L360.860699,629.295422 L574.62195,505.880322 L574.62195,190.596346 L301.578125,32.955044" fill="#555"></path>
  <path d="M123.703641,245.542919 L301.578811,553.631564 L479.453981,245.542919 L123.703641,245.542919 L123.703641,245.542919 Z M285.796566,463.168076 L194.156614,304.442946 L285.796566,357.350865 L285.796566,463.168076 L285.796566,463.168076 Z M209.93886,277.10741 L393.218762,277.10741 L301.579497,330.016016 L209.93886,277.10741 L209.93886,277.10741 Z M317.36037,357.350865 L409.001008,304.442259 L317.36037,463.168076 L317.36037,357.350865 L317.36037,357.350865 Z" fill="#FFFFFF" ></path>
  <path d="M301.578811,65.7035464 L56.895681,206.971798 L56.895681,489.506928 L301.578811,630.77518 L546.261941,489.506928 L546.261941,206.971798 L301.578811,65.7035464 L301.578811,65.7035464 Z M431.811156,405.205378 L416.02891,432.541599 L498.915205,480.396112 L301.578811,594.328142 L104.242417,480.396112 L187.128712,432.541599 L171.346466,405.205378 L88.4601719,453.059891 L88.4601719,225.195145 L285.796566,111.263115 L285.796566,206.971798 L317.36037,206.971798 L317.36037,111.262429 L514.69745,225.195145 L514.69745,453.059891 L431.811156,405.205378 L431.811156,405.205378 Z" fill="#FFFFFF"></path></svg>
